<?xml version="1.0" standalone="no"?>
<!DOCTYPE svg PUBLIC "-//W3C//DTD SVG 20010904//EN"
 "http://www.w3.org/TR/2001/REC-SVG-20010904/DTD/svg10.dtd">
<svg version="1.0" xmlns="http://www.w3.org/2000/svg"
 width="1280.000000pt" height="934.000000pt" viewBox="0 0 1280.000000 934.000000"
 preserveAspectRatio="xMidYMid meet">
<metadata>
Created by potrace 1.15, written by Peter Selinger 2001-2017
</metadata>
<g transform="translate(0.000000,934.000000) scale(0.100000,-0.100000)"
fill="#000000" stroke="none">
<path d="M430 5000 l0 -4260 -175 0 -175 0 0 -75 0 -75 175 0 175 0 0 -255 0
-255 80 0 80 0 0 255 0 255 6065 0 6065 0 0 75 0 75 -6065 0 -6065 0 0 4260 0
4260 -80 0 -80 0 0 -4260z"/>
<path d="M10670 7526 c-168 -73 -622 -269 -1010 -435 -388 -167 -709 -307
-714 -312 -6 -5 4 -9 25 -9 48 -1 918 -116 925 -122 7 -7 -1068 -2098 -1079
-2098 -4 0 -361 243 -793 541 -432 297 -789 539 -794 537 -18 -7 -1100 -1328
-1098 -1340 2 -7 -2 -12 -8 -11 -12 2 -14 0 -234 -266 -79 -96 -138 -171 -132
-167 6 3 86 96 177 206 92 110 169 200 172 200 2 0 -5 -12 -17 -27 -20 -26
-21 -36 -19 -265 l1 -238 -108 -128 c-59 -70 -132 -155 -162 -189 -30 -35 -52
-63 -49 -63 7 0 367 417 367 426 0 4 -10 -1 -22 -12 -21 -17 -21 -17 1 8 13
15 27 25 31 23 4 -3 252 281 551 629 299 349 547 634 551 633 4 -1 379 -361
834 -800 710 -684 829 -795 837 -780 52 94 1571 2790 1576 2795 3 4 134 -161
291 -367 156 -206 286 -372 288 -371 3 3 -49 1601 -64 1974 -4 89 -10 162 -13
161 -3 0 -143 -60 -311 -133z"/>
<path d="M5719 3803 l-24 -28 28 24 c15 14 27 26 27 28 0 8 -8 1 -31 -24z"/>
<path d="M5674 3748 l-19 -23 23 19 c12 11 22 21 22 23 0 8 -8 2 -26 -19z"/>
<path d="M5624 3688 l-19 -23 23 19 c12 11 22 21 22 23 0 8 -8 2 -26 -19z"/>
<path d="M5579 3633 c-13 -16 -12 -17 4 -4 9 7 17 15 17 17 0 8 -8 3 -21 -13z"/>
<path d="M5529 3573 c-13 -16 -12 -17 4 -4 16 13 21 21 13 21 -2 0 -10 -8 -17
-17z"/>
<path d="M5714 3298 l-29 -33 33 29 c17 17 32 31 32 33 0 8 -8 1 -36 -29z"/>
<path d="M5659 3233 l-24 -28 28 24 c15 14 27 26 27 28 0 8 -8 1 -31 -24z"/>
<path d="M5599 3163 l-24 -28 28 24 c15 14 27 26 27 28 0 8 -8 1 -31 -24z"/>
<path d="M5539 3093 c-13 -16 -12 -17 4 -4 16 13 21 21 13 21 -2 0 -10 -8 -17
-17z"/>
<path d="M5479 3023 c-13 -16 -12 -17 4 -4 16 13 21 21 13 21 -2 0 -10 -8 -17
-17z"/>
</g>
</svg>
